<?xml version="1.0" standalone="no"?>
<!DOCTYPE svg PUBLIC "-//W3C//DTD SVG 20010904//EN"
 "http://www.w3.org/TR/2001/REC-SVG-20010904/DTD/svg10.dtd">
<svg version="1.0" xmlns="http://www.w3.org/2000/svg"
 width="512.000000pt" height="512.000000pt" viewBox="0 0 512.000000 512.000000"
 preserveAspectRatio="xMidYMid meet">
<metadata>
</metadata>
<g transform="translate(0.000000,512.000000) scale(0.100000,-0.100000)"
fill="#000000" stroke="none">
<path d="M512 4305 c-164 -36 -302 -176 -337 -342 -9 -42 -15 -126 -15 -218
l0 -150 79 0 79 0 4 170 c3 163 4 173 31 227 32 64 80 111 146 142 45 21 56
21 841 23 l795 3 219 -160 220 -160 242 0 c236 0 243 -1 249 -21 11 -33 65
-88 109 -112 57 -30 155 -30 212 0 44 24 98 79 109 113 l7 21 536 -3 c522 -3
538 -4 583 -24 66 -31 114 -78 146 -142 28 -56 28 -60 31 -273 l3 -217 40 9
c23 5 56 5 79 0 l40 -9 0 197 c0 224 -13 303 -60 386 -40 70 -105 135 -175
175 -99 56 -136 60 -707 60 -513 0 -517 0 -523 21 -11 33 -65 88 -109 112 -57
30 -155 30 -212 0 -44 -24 -98 -79 -109 -112 -6 -20 -13 -21 -223 -21 l-217 0
-219 160 -220 160 -805 -1 c-641 0 -819 -3 -869 -14z"/>
<path d="M2463 3501 c-101 -34 -196 -139 -269 -297 -21 -43 -38 -80 -38 -81
-1 -1 -28 5 -61 13 -97 23 -232 33 -310 22 -128 -18 -204 -69 -248 -167 -53
-120 19 -324 184 -519 l60 -72 -60 -72 c-71 -83 -133 -183 -169 -271 -21 -50
-26 -78 -27 -148 0 -78 3 -90 30 -135 38 -61 103 -106 181 -123 80 -18 220
-15 329 8 61 12 91 15 94 8 2 -6 24 -51 49 -101 84 -167 230 -286 352 -286
122 0 268 119 352 286 25 50 47 95 49 101 3 7 33 4 94 -8 177 -37 347 -23 434
36 172 115 138 363 -87 630 l-63 75 61 72 c164 195 236 399 183 519 -11 24
-31 58 -46 74 -29 35 -113 79 -172 90 -68 12 -216 6 -310 -14 -61 -12 -91 -15
-94 -8 -2 6 -23 49 -47 96 -77 153 -151 229 -267 273 -59 23 -117 22 -184 -1z
m174 -173 c18 -10 48 -41 67 -67 39 -53 99 -178 91 -191 -2 -4 -31 -18 -62
-30 -32 -13 -84 -36 -115 -52 l-58 -28 -57 28 c-32 16 -84 39 -116 52 -31 12
-60 26 -63 31 -10 17 76 177 120 222 66 68 122 78 193 35z m-624 -344 l89 -16
-5 -32 c-2 -17 -12 -76 -21 -131 -9 -55 -19 -114 -22 -131 -3 -24 -22 -46 -79
-93 -41 -34 -79 -60 -84 -56 -25 15 -138 177 -168 240 -42 90 -47 153 -14 189
44 47 154 57 304 30z m1333 5 c28 -7 54 -23 70 -42 32 -38 27 -81 -20 -182
-29 -62 -142 -225 -167 -240 -5 -4 -43 22 -84 56 -57 47 -76 69 -79 93 -3 17
-13 76 -22 131 -9 55 -19 114 -21 131 l-5 32 79 15 c96 18 190 21 249 6z
m-1013 -102 l48 -22 -71 -42 c-38 -23 -70 -40 -70 -37 0 6 20 93 26 112 5 16
10 15 67 -11z m533 -38 c7 -30 13 -57 14 -61 0 -4 -32 12 -70 35 l-71 42 48
22 c26 12 52 21 57 19 6 -1 15 -27 22 -57z m-233 -111 c40 -23 118 -72 175
-110 l102 -68 0 -160 0 -159 -87 -59 c-49 -32 -127 -82 -175 -111 l-88 -52
-87 52 c-49 29 -127 79 -175 111 l-88 59 0 159 0 159 78 53 c71 49 263 167
270 168 2 0 36 -19 75 -42z m-593 -340 c0 -16 -3 -19 -11 -11 -6 6 -8 16 -5
22 11 17 16 13 16 -11z m1052 -10 c-9 -9 -12 -7 -12 12 0 19 3 21 12 12 9 -9
9 -15 0 -24z m-1116 -169 c56 -47 75 -69 78 -93 3 -17 13 -76 22 -131 9 -55
19 -114 21 -131 l5 -32 -74 -13 c-40 -8 -113 -14 -163 -14 -189 0 -226 72
-130 254 32 61 149 221 161 221 3 0 39 -28 80 -61z m1313 -16 c109 -139 165
-274 141 -334 -19 -45 -71 -64 -175 -64 -49 0 -123 6 -163 14 l-74 13 5 32 c2
17 12 76 21 131 9 55 19 114 22 131 3 24 22 46 77 92 39 34 75 61 79 62 4 0
34 -35 67 -77z m-950 -285 c-68 -30 -71 -29 -85 32 -7 30 -13 58 -14 62 0 4
31 -12 69 -35 l69 -42 -39 -17z m527 36 c-15 -64 -13 -63 -83 -37 l-43 16 68
42 c37 23 68 41 70 40 1 -1 -4 -28 -12 -61z m-190 -170 c60 -26 113 -50 117
-54 11 -10 -47 -134 -89 -192 -38 -52 -106 -98 -144 -98 -38 0 -106 46 -144
98 -39 54 -100 181 -90 191 8 9 217 99 230 100 6 1 60 -20 120 -45z"/>
<path d="M160 2175 c0 -1044 0 -1035 60 -1140 40 -70 105 -135 175 -175 107
-61 61 -60 1508 -60 l1318 0 24 25 c30 29 32 74 6 106 l-19 24 -1344 5 c-1339
5 -1343 5 -1389 26 -66 31 -114 78 -146 142 l-28 57 -3 970 -2 970 -80 0 -80
0 0 -950z"/>
<path d="M4800 2600 c0 -131 -1 -139 -21 -145 -33 -11 -88 -65 -112 -109 -30
-57 -30 -155 0 -212 24 -44 79 -98 113 -109 21 -7 21 -7 18 -423 -3 -400 -4
-419 -24 -463 -31 -66 -78 -114 -142 -146 -57 -28 -59 -28 -304 -33 -238 -5
-248 -6 -269 -27 -32 -31 -30 -80 5 -110 27 -23 31 -23 249 -23 252 0 327 11
412 60 70 40 135 105 175 175 54 95 60 147 60 587 0 392 0 397 21 403 33 11
88 65 112 109 15 30 21 59 21 106 0 47 -6 76 -21 106 -24 44 -79 98 -112 109
-20 6 -21 14 -21 145 l0 138 -40 -9 c-24 -5 -56 -5 -80 0 l-40 9 0 -138z"/>
<path d="M3475 935 c-16 -15 -25 -36 -25 -55 0 -19 9 -40 25 -55 23 -24 30
-25 139 -25 64 0 126 5 140 11 55 26 55 112 0 138 -14 6 -76 11 -140 11 -109
0 -116 -1 -139 -25z"/>
</g>
</svg>
